BenchTwelve Medium-black.ufo
<glyph name="period" format="1">
  <advance width="625"/>
  <unicode hex="002E"/>
  <outline>
    <contour>
      <point x="206" y="0" type="curve" smooth="yes"/>
      <point x="419" y="0" type="line" smooth="yes"/>
      <point x="462" y="0"/>
      <point x="496" y="34"/>
      <point x="496" y="77" type="curve" smooth="yes"/>
      <point x="496" y="265" type="line" smooth="yes"/>
      <point x="496" y="308"/>
      <point x="462" y="342"/>
      <point x="419" y="342" type="curve" smooth="yes"/>
      <point x="206" y="342" type="line" smooth="yes"/>
      <point x="163" y="342"/>
      <point x="129" y="308"/>
      <point x="129" y="265" type="curve" smooth="yes"/>
      <point x="129" y="77" type="line" smooth="yes"/>
      <point x="129" y="34"/>
      <point x="163" y="0"/>
    </contour>
  </outline>
</glyph>
<glyph name="two" format="1">
  <advance width="2202"/>
  <unicode hex="0032"/>
  <outline>
    <contour>
      <point x="238" y="3" type="curve" smooth="yes"/>
      <point x="1928" y="3" type="line" smooth="yes"/>
      <point x="1970" y="3"/>
      <point x="1985" y="23"/>
      <point x="1985" y="71" type="curve" smooth="yes"/>
      <point x="1985" y="242" type="line" smooth="yes"/>
      <point x="1985" y="288"/>
      <point x="1962" y="306"/>
      <point x="1929" y="306" type="curve" smooth="yes"/>
      <point x="902" y="306" type="line" smooth="yes"/>
      <point x="866" y="306"/>
      <point x="846" y="322"/>
      <point x="846" y="350" type="curve" smooth="yes"/>
      <point x="846" y="387"/>
      <point x="859" y="393"/>
      <point x="876" y="399" type="curve" smooth="yes"/>
      <point x="1276" y="605"/>
      <point x="2084" y="427"/>
      <point x="2027" y="1037" type="curve" smooth="yes"/>
      <point x="1990" y="1413"/>
      <point x="1584" y="1476"/>
      <point x="1025" y="1476" type="curve"/>
      <point x="765" y="1475"/>
      <point x="387" y="1401"/>
      <point x="241" y="1336" type="curve" smooth="yes"/>
      <point x="213" y="1324"/>
      <point x="203" y="1304"/>
      <point x="203" y="1267" type="curve" smooth="yes"/>
      <point x="203" y="1263"/>
      <point x="233" y="1141"/>
      <point x="269" y="1074" type="curve"/>
      <point x="274" y="1053"/>
      <point x="294" y="1044"/>
      <point x="329" y="1044" type="curve" smooth="yes"/>
      <point x="344" y="1044"/>
      <point x="358" y="1048"/>
      <point x="378" y="1054" type="curve" smooth="yes"/>
      <point x="403" y="1062"/>
      <point x="814" y="1165"/>
      <point x="1134" y="1165" type="curve" smooth="yes"/>
      <point x="1453" y="1165"/>
      <point x="1474" y="1105"/>
      <point x="1474" y="1036" type="curve" smooth="yes"/>
      <point x="1474" y="778"/>
      <point x="246" y="1096"/>
      <point x="148" y="207" type="curve" smooth="yes"/>
      <point x="147" y="196"/>
      <point x="136" y="103"/>
      <point x="136" y="93" type="curve" smooth="yes"/>
      <point x="136" y="37"/>
      <point x="174" y="3"/>
    </contour>
  </outline>
</glyph>
<glyph name="four" format="1">
  <advance width="2076"/>
  <unicode hex="0034"/>
  <outline>
    <contour>
      <point x="1311" y="-151" type="curve" smooth="yes"/>
      <point x="1629" y="-151" type="line" smooth="yes"/>
      <point x="1672" y="-151"/>
      <point x="1705" y="-118"/>
      <point x="1705" y="-75" type="curve" smooth="yes"/>
      <point x="1705" y="172" type="line"/>
      <point x="1868" y="172" type="line" smooth="yes"/>
      <point x="1911" y="172"/>
      <point x="1943" y="204"/>
      <point x="1943" y="247" type="curve" smooth="yes"/>
      <point x="1943" y="456" type="line" smooth="yes"/>
      <point x="1943" y="499"/>
      <point x="1911" y="531"/>
      <point x="1868" y="531" type="curve" smooth="yes"/>
      <point x="1705" y="531" type="line"/>
      <point x="1705" y="1363" type="line" smooth="yes"/>
      <point x="1705" y="1406"/>
      <point x="1672" y="1438"/>
      <point x="1629" y="1438" type="curve" smooth="yes"/>
      <point x="1311" y="1438" type="line" smooth="yes"/>
      <point x="1268" y="1438"/>
      <point x="1236" y="1406"/>
      <point x="1236" y="1363" type="curve" smooth="yes"/>
      <point x="1236" y="531" type="line"/>
      <point x="909" y="531" type="line" smooth="yes"/>
      <point x="890" y="531"/>
      <point x="873" y="546"/>
      <point x="873" y="563" type="curve" smooth="yes"/>
      <point x="873" y="564"/>
      <point x="873" y="567"/>
      <point x="874" y="568" type="curve" smooth="yes"/>
      <point x="1051" y="1363" type="line" smooth="yes"/>
      <point x="1052" y="1366"/>
      <point x="1052" y="1369"/>
      <point x="1052" y="1373" type="curve" smooth="yes"/>
      <point x="1052" y="1410"/>
      <point x="1015" y="1438"/>
      <point x="975" y="1438" type="curve" smooth="yes"/>
      <point x="525" y="1438" type="line" smooth="yes"/>
      <point x="482" y="1438"/>
      <point x="460" y="1405"/>
      <point x="449" y="1363" type="curve"/>
      <point x="126" y="247" type="line" smooth="yes"/>
      <point x="125" y="243"/>
      <point x="124" y="239"/>
      <point x="124" y="235" type="curve" smooth="yes"/>
      <point x="124" y="199"/>
      <point x="163" y="172"/>
      <point x="201" y="172" type="curve" smooth="yes"/>
      <point x="1236" y="172" type="line"/>
      <point x="1236" y="-75" type="line" smooth="yes"/>
      <point x="1236" y="-118"/>
      <point x="1268" y="-151"/>
    </contour>
  </outline>
</glyph>
<glyph name="eight" format="1">
  <advance width="2266"/>
  <unicode hex="0038"/>
  <outline>
    <contour>
      <point x="1134" y="-41" type="curve" smooth="yes"/>
      <point x="1597" y="-41"/>
      <point x="2130" y="49"/>
      <point x="2130" y="437" type="curve" smooth="yes"/>
      <point x="2130" y="625"/>
      <point x="1970" y="724"/>
      <point x="1785" y="789" type="curve"/>
      <point x="1901" y="830"/>
      <point x="2033" y="947"/>
      <point x="2033" y="1075" type="curve" smooth="yes"/>
      <point x="2033" y="1402"/>
      <point x="1542" y="1475"/>
      <point x="1134" y="1475" type="curve" smooth="yes"/>
      <point x="724" y="1475"/>
      <point x="205" y="1425"/>
      <point x="205" y="1099" type="curve" smooth="yes"/>
      <point x="205" y="941"/>
      <point x="368" y="847"/>
      <point x="487" y="797" type="curve"/>
      <point x="322" y="752"/>
      <point x="139" y="627"/>
      <point x="139" y="440" type="curve" smooth="yes"/>
      <point x="139" y="20"/>
      <point x="670" y="-41"/>
    </contour>
    <contour>
      <point x="1134" y="205" type="curve" smooth="yes"/>
      <point x="886" y="205"/>
      <point x="771" y="280"/>
      <point x="771" y="474" type="curve" smooth="yes"/>
      <point x="771" y="559"/>
      <point x="793" y="627"/>
      <point x="837" y="671" type="curve"/>
      <point x="910" y="656"/>
      <point x="991" y="643"/>
      <point x="1063" y="633" type="curve" smooth="yes"/>
      <point x="1278" y="600"/>
      <point x="1498" y="564"/>
      <point x="1498" y="422" type="curve" smooth="yes"/>
      <point x="1498" y="265"/>
      <point x="1392" y="205"/>
    </contour>
    <contour>
      <point x="1400" y="861" type="curve"/>
      <point x="1279" y="874"/>
      <point x="1162" y="889"/>
      <point x="1102" y="899" type="curve" smooth="yes"/>
      <point x="894" y="931"/>
      <point x="810" y="987"/>
      <point x="810" y="1088" type="curve" smooth="yes"/>
      <point x="810" y="1232"/>
      <point x="953" y="1277"/>
      <point x="1134" y="1277" type="curve" smooth="yes"/>
      <point x="1314" y="1277"/>
      <point x="1459" y="1214"/>
      <point x="1459" y="1067" type="curve" smooth="yes"/>
      <point x="1459" y="991"/>
      <point x="1420" y="894"/>
    </contour>
  </outline>
</glyph>
<glyph name="at" format="1">
  <advance width="2249"/>
  <unicode hex="0040"/>
  <outline>
    <contour>
      <point x="1070" y="-285" type="curve" smooth="yes"/>
      <point x="1214" y="-285"/>
      <point x="1341" y="-263"/>
      <point x="1451" y="-223" type="curve"/>
      <point x="1400" y="-53" type="line"/>
      <point x="1315" y="-87"/>
      <point x="1215" y="-106"/>
      <point x="1098" y="-106" type="curve" smooth="yes"/>
      <point x="591" y="-106"/>
      <point x="378" y="241"/>
      <point x="378" y="590" type="curve" smooth="yes"/>
      <point x="378" y="971"/>
      <point x="643" y="1285"/>
      <point x="1150" y="1285" type="curve" smooth="yes"/>
      <point x="1651" y="1285"/>
      <point x="1909" y="975"/>
      <point x="1909" y="601" type="curve" smooth="yes"/>
      <point x="1909" y="306"/>
      <point x="1852" y="277"/>
      <point x="1799" y="277" type="curve" smooth="yes"/>
      <point x="1750" y="277"/>
      <point x="1704" y="310"/>
      <point x="1704" y="403" type="curve" smooth="yes"/>
      <point x="1704" y="925" type="line" smooth="yes"/>
      <point x="1704" y="959"/>
      <point x="1675" y="986"/>
      <point x="1638" y="986" type="curve" smooth="yes"/>
      <point x="1622" y="986" type="line" smooth="yes"/>
      <point x="1582" y="986"/>
      <point x="1552" y="974"/>
      <point x="1545" y="936" type="curve"/>
      <point x="1526" y="811" type="line" smooth="yes"/>
      <point x="1524" y="803"/>
      <point x="1523" y="798"/>
      <point x="1520" y="798" type="curve" smooth="yes"/>
      <point x="1517" y="798"/>
      <point x="1514" y="802"/>
      <point x="1510" y="810" type="curve" smooth="yes"/>
      <point x="1451" y="927"/>
      <point x="1295" y="1031"/>
      <point x="1087" y="1031" type="curve" smooth="yes"/>
      <point x="803" y="1031"/>
      <point x="578" y="865"/>
      <point x="578" y="573" type="curve" smooth="yes"/>
      <point x="578" y="264"/>
      <point x="830" y="101"/>
      <point x="1114" y="101" type="curve" smooth="yes"/>
      <point x="1332" y="101"/>
      <point x="1452" y="208"/>
      <point x="1522" y="315" type="curve" smooth="yes"/>
      <point x="1528" y="324"/>
      <point x="1535" y="339"/>
      <point x="1543" y="339" type="curve" smooth="yes"/>
      <point x="1550" y="339"/>
      <point x="1557" y="322"/>
      <point x="1560" y="301" type="curve"/>
      <point x="1566" y="205"/>
      <point x="1676" y="127"/>
      <point x="1796" y="127" type="curve" smooth="yes"/>
      <point x="1946" y="127"/>
      <point x="2111" y="247"/>
      <point x="2111" y="601" type="curve"/>
      <point x="2109" y="1061"/>
      <point x="1765" y="1475"/>
      <point x="1146" y="1475" type="curve" smooth="yes"/>
      <point x="526" y="1475"/>
      <point x="139" y="1089"/>
      <point x="139" y="595" type="curve" smooth="yes"/>
      <point x="139" y="131"/>
      <point x="450" y="-285"/>
    </contour>
    <contour>
      <point x="1122" y="283" type="curve" smooth="yes"/>
      <point x="918" y="283"/>
      <point x="826" y="412"/>
      <point x="826" y="559" type="curve" smooth="yes"/>
      <point x="826" y="701"/>
      <point x="901" y="840"/>
      <point x="1121" y="840" type="curve" smooth="yes"/>
      <point x="1287" y="840"/>
      <point x="1465" y="765"/>
      <point x="1465" y="564" type="curve" smooth="yes"/>
      <point x="1465" y="348"/>
      <point x="1290" y="283"/>
    </contour>
  </outline>
</glyph>
<glyph name="A" format="1">
  <advance width="2440"/>
  <unicode hex="0041"/>
  <outline>
    <contour>
      <point x="1220" y="1438" type="move" name="top"/>
    </contour>
    <contour>
      <point x="2195" y="10" type="move" name="ogonek"/>
    </contour>
    <contour>
      <point x="152" y="0" type="curve" smooth="yes"/>
      <point x="629" y="0" type="line" smooth="yes"/>
      <point x="674" y="0"/>
      <point x="709" y="17"/>
      <point x="727" y="59" type="curve"/>
      <point x="776" y="180" type="line"/>
      <point x="784" y="197"/>
      <point x="785" y="209"/>
      <point x="814" y="209" type="curve" smooth="yes"/>
      <point x="1475" y="209" type="line" smooth="yes"/>
      <point x="1503" y="209"/>
      <point x="1504" y="198"/>
      <point x="1512" y="181" type="curve"/>
      <point x="1564" y="58" type="line"/>
      <point x="1584" y="16"/>
      <point x="1620" y="0"/>
      <point x="1666" y="0" type="curve" smooth="yes"/>
      <point x="2284" y="0" type="line" smooth="yes"/>
      <point x="2312" y="0"/>
      <point x="2333" y="21"/>
      <point x="2333" y="46" type="curve" smooth="yes"/>
      <point x="2333" y="53"/>
      <point x="2330" y="61"/>
      <point x="2327" y="69" type="curve" smooth="yes"/>
      <point x="1701" y="1369" type="line" smooth="yes"/>
      <point x="1681" y="1410"/>
      <point x="1638" y="1438"/>
      <point x="1593" y="1438" type="curve" smooth="yes"/>
      <point x="860" y="1438" type="line" smooth="yes"/>
      <point x="815" y="1438"/>
      <point x="772" y="1410"/>
      <point x="751" y="1369" type="curve" smooth="yes"/>
      <point x="111" y="69" type="line" smooth="yes"/>
      <point x="106" y="61"/>
      <point x="105" y="53"/>
      <point x="105" y="46" type="curve" smooth="yes"/>
      <point x="105" y="21"/>
      <point x="124" y="0"/>
    </contour>
    <contour>
      <point x="956" y="534" type="line"/>
      <point x="944" y="534"/>
      <point x="934" y="544"/>
      <point x="934" y="555" type="curve" smooth="yes"/>
      <point x="934" y="558"/>
      <point x="935" y="561"/>
      <point x="936" y="563" type="curve" smooth="yes"/>
      <point x="1147" y="1046" type="line" smooth="yes"/>
      <point x="1149" y="1051"/>
      <point x="1154" y="1054"/>
      <point x="1159" y="1054" type="curve" smooth="yes"/>
      <point x="1163" y="1054"/>
      <point x="1168" y="1052"/>
      <point x="1170" y="1045" type="curve" smooth="yes"/>
      <point x="1371" y="564" type="line" smooth="yes"/>
      <point x="1372" y="562"/>
      <point x="1373" y="558"/>
      <point x="1373" y="555" type="curve" smooth="yes"/>
      <point x="1373" y="544"/>
      <point x="1364" y="534"/>
      <point x="1351" y="534" type="curve" smooth="yes"/>
    </contour>
  </outline>
</glyph>
<glyph name="B" format="1">
  <advance width="2391"/>
  <unicode hex="0042"/>
  <outline>
    <contour>
      <point x="236" y="0" type="curve" smooth="yes"/>
      <point x="1361" y="0" type="line" smooth="yes"/>
      <point x="1860" y="0"/>
      <point x="2255" y="96"/>
      <point x="2255" y="424" type="curve" smooth="yes"/>
      <point x="2255" y="590"/>
      <point x="2145" y="694"/>
      <point x="1991" y="757" type="curve" smooth="yes"/>
      <point x="1976" y="763"/>
      <point x="1975" y="780"/>
      <point x="1988" y="788" type="curve" smooth="yes"/>
      <point x="2090" y="848"/>
      <point x="2157" y="929"/>
      <point x="2157" y="1040" type="curve" smooth="yes"/>
      <point x="2157" y="1339"/>
      <point x="1834" y="1438"/>
      <point x="1406" y="1438" type="curve" smooth="yes"/>
      <point x="236" y="1438" type="line" smooth="yes"/>
      <point x="193" y="1438"/>
      <point x="159" y="1402"/>
      <point x="159" y="1359" type="curve" smooth="yes"/>
      <point x="159" y="77" type="line" smooth="yes"/>
      <point x="159" y="34"/>
      <point x="193" y="0"/>
    </contour>
    <contour>
      <point x="865" y="334" type="line"/>
      <point x="845" y="334"/>
      <point x="828" y="349"/>
      <point x="828" y="371" type="curve" smooth="yes"/>
      <point x="828" y="609" type="line" smooth="yes"/>
      <point x="828" y="631"/>
      <point x="845" y="646"/>
      <point x="865" y="646" type="curve" smooth="yes"/>
      <point x="1262" y="646" type="line" smooth="yes"/>
      <point x="1473" y="646"/>
      <point x="1571" y="630"/>
      <point x="1571" y="496" type="curve" smooth="yes"/>
      <point x="1571" y="347"/>
      <point x="1397" y="334"/>
      <point x="1210" y="334" type="curve" smooth="yes"/>
    </contour>
    <contour>
      <point x="865" y="861" type="line"/>
      <point x="845" y="861"/>
      <point x="828" y="880"/>
      <point x="828" y="902" type="curve" smooth="yes"/>
      <point x="828" y="1110" type="line" smooth="yes"/>
      <point x="828" y="1132"/>
      <point x="845" y="1147"/>
      <point x="865" y="1147" type="curve" smooth="yes"/>
      <point x="1199" y="1147" type="line" smooth="yes"/>
      <point x="1365" y="1147"/>
      <point x="1517" y="1147"/>
      <point x="1517" y="997" type="curve" smooth="yes"/>
      <point x="1517" y="887"/>
      <point x="1441" y="866"/>
      <point x="1279" y="861" type="curve"/>
    </contour>
  </outline>
</glyph>
<glyph name="E" format="1">
  <advance width="2208"/>
  <unicode hex="0045"/>
  <outline>
    <contour>
      <point x="1105" y="1438" type="move" name="top"/>
    </contour>
    <contour>
      <point x="1987" y="10" type="move" name="ogonek"/>
    </contour>
    <contour>
      <point x="1105" y="0" type="move" name="bottom"/>
    </contour>
    <contour>
      <point x="235" y="0" type="curve" smooth="yes"/>
      <point x="1991" y="0" type="line" smooth="yes"/>
      <point x="2034" y="0"/>
      <point x="2066" y="34"/>
      <point x="2066" y="77" type="curve" smooth="yes"/>
      <point x="2066" y="262" type="line" smooth="yes"/>
      <point x="2066" y="305"/>
      <point x="2034" y="339"/>
      <point x="1991" y="339" type="curve" smooth="yes"/>
      <point x="895" y="339" type="line" smooth="yes"/>
      <point x="878" y="339"/>
      <point x="865" y="347"/>
      <point x="865" y="364" type="curve" smooth="yes"/>
      <point x="865" y="572" type="line" smooth="yes"/>
      <point x="865" y="589"/>
      <point x="879" y="598"/>
      <point x="896" y="598" type="curve" smooth="yes"/>
      <point x="1841" y="598" type="line" smooth="yes"/>
      <point x="1884" y="598"/>
      <point x="1916" y="632"/>
      <point x="1916" y="675" type="curve" smooth="yes"/>
      <point x="1916" y="786" type="line" smooth="yes"/>
      <point x="1916" y="829"/>
      <point x="1884" y="863"/>
      <point x="1841" y="863" type="curve" smooth="yes"/>
      <point x="895" y="863" type="line" smooth="yes"/>
      <point x="878" y="863"/>
      <point x="865" y="873"/>
      <point x="865" y="890" type="curve" smooth="yes"/>
      <point x="865" y="1067" type="line" smooth="yes"/>
      <point x="865" y="1087"/>
      <point x="877" y="1094"/>
      <point x="897" y="1094" type="curve" smooth="yes"/>
      <point x="1929" y="1094" type="line" smooth="yes"/>
      <point x="1972" y="1094"/>
      <point x="2004" y="1128"/>
      <point x="2004" y="1171" type="curve" smooth="yes"/>
      <point x="2004" y="1361" type="line" smooth="yes"/>
      <point x="2004" y="1404"/>
      <point x="1972" y="1438"/>
      <point x="1929" y="1438" type="curve" smooth="yes"/>
      <point x="235" y="1438" type="line" smooth="yes"/>
      <point x="192" y="1438"/>
      <point x="159" y="1404"/>
      <point x="159" y="1361" type="curve" smooth="yes"/>
      <point x="159" y="76" type="line" smooth="yes"/>
      <point x="159" y="33"/>
      <point x="192" y="0"/>
    </contour>
  </outline>
</glyph>
<glyph name="M" format="1">
  <advance width="2946"/>
  <unicode hex="004D"/>
  <outline>
    <contour>
      <point x="223" y="0" type="curve" smooth="yes"/>
      <point x="669" y="0" type="line" smooth="yes"/>
      <point x="712" y="0"/>
      <point x="745" y="33"/>
      <point x="745" y="76" type="curve"/>
      <point x="793" y="804" type="line" smooth="yes"/>
      <point x="793" y="812"/>
      <point x="806" y="816"/>
      <point x="810" y="808" type="curve" smooth="yes"/>
      <point x="1243" y="67" type="line" smooth="yes"/>
      <point x="1266" y="26"/>
      <point x="1310" y="0"/>
      <point x="1356" y="0" type="curve" smooth="yes"/>
      <point x="1586" y="0" type="line" smooth="yes"/>
      <point x="1632" y="0"/>
      <point x="1676" y="26"/>
      <point x="1699" y="67" type="curve" smooth="yes"/>
      <point x="2135" y="810" type="line" smooth="yes"/>
      <point x="2139" y="818"/>
      <point x="2152" y="815"/>
      <point x="2152" y="806" type="curve" smooth="yes"/>
      <point x="2199" y="76" type="line"/>
      <point x="2200" y="33"/>
      <point x="2233" y="0"/>
      <point x="2276" y="0" type="curve" smooth="yes"/>
      <point x="2722" y="0" type="line" smooth="yes"/>
      <point x="2765" y="0"/>
      <point x="2797" y="33"/>
      <point x="2797" y="76" type="curve"/>
      <point x="2713" y="1363" type="line"/>
      <point x="2712" y="1405"/>
      <point x="2680" y="1438"/>
      <point x="2638" y="1438" type="curve" smooth="yes"/>
      <point x="2010" y="1438" type="line" smooth="yes"/>
      <point x="1963" y="1438"/>
      <point x="1920" y="1411"/>
      <point x="1898" y="1371" type="curve" smooth="yes"/>
      <point x="1488" y="646" type="line" smooth="yes"/>
      <point x="1481" y="634"/>
      <point x="1461" y="634"/>
      <point x="1454" y="646" type="curve" smooth="yes"/>
      <point x="1048" y="1371" type="line" smooth="yes"/>
      <point x="1026" y="1411"/>
      <point x="982" y="1438"/>
      <point x="936" y="1438" type="curve" smooth="yes"/>
      <point x="308" y="1438" type="line" smooth="yes"/>
      <point x="266" y="1438"/>
      <point x="233" y="1405"/>
      <point x="233" y="1363" type="curve"/>
      <point x="148" y="76" type="line"/>
      <point x="147" y="33"/>
      <point x="180" y="0"/>
    </contour>
  </outline>
</glyph>
<glyph name="N" format="1">
  <advance width="2542"/>
  <unicode hex="004E"/>
  <outline>
    <contour>
      <point x="1272" y="1438" type="move" name="top"/>
    </contour>
    <contour>
      <point x="1272" y="0" type="move" name="bottom"/>
    </contour>
    <contour>
      <point x="235" y="0" type="curve" smooth="yes"/>
      <point x="681" y="0" type="line" smooth="yes"/>
      <point x="724" y="0"/>
      <point x="757" y="33"/>
      <point x="757" y="76" type="curve" smooth="yes"/>
      <point x="757" y="845" type="line" smooth="yes"/>
      <point x="757" y="858"/>
      <point x="774" y="866"/>
      <point x="783" y="858" type="curve" smooth="yes"/>
      <point x="1662" y="30" type="line"/>
      <point x="1693" y="2"/>
      <point x="1741" y="-15"/>
      <point x="1784" y="-15" type="curve" smooth="yes"/>
      <point x="2307" y="-15" type="line" smooth="yes"/>
      <point x="2350" y="-15"/>
      <point x="2382" y="17"/>
      <point x="2382" y="60" type="curve" smooth="yes"/>
      <point x="2382" y="1361" type="line" smooth="yes"/>
      <point x="2382" y="1404"/>
      <point x="2350" y="1436"/>
      <point x="2307" y="1436" type="curve" smooth="yes"/>
      <point x="1870" y="1436" type="line" smooth="yes"/>
      <point x="1827" y="1436"/>
      <point x="1794" y="1404"/>
      <point x="1794" y="1361" type="curve" smooth="yes"/>
      <point x="1794" y="763" type="line" smooth="yes"/>
      <point x="1794" y="750"/>
      <point x="1778" y="742"/>
      <point x="1769" y="750" type="curve" smooth="yes"/>
      <point x="1054" y="1406" type="line"/>
      <point x="1022" y="1434"/>
      <point x="975" y="1452"/>
      <point x="931" y="1452" type="curve" smooth="yes"/>
      <point x="235" y="1452" type="line" smooth="yes"/>
      <point x="192" y="1452"/>
      <point x="159" y="1419"/>
      <point x="159" y="1376" type="curve" smooth="yes"/>
      <point x="159" y="76" type="line" smooth="yes"/>
      <point x="159" y="33"/>
      <point x="192" y="0"/>
    </contour>
  </outline>
</glyph>
<glyph name="Z" format="1">
  <advance width="2067"/>
  <unicode hex="005A"/>
  <outline>
    <contour>
      <point x="1034" y="1438" type="move" name="top"/>
    </contour>
    <contour>
      <point x="220" y="0" type="curve" smooth="yes"/>
      <point x="1849" y="0" type="line" smooth="yes"/>
      <point x="1892" y="0"/>
      <point x="1924" y="34"/>
      <point x="1924" y="77" type="curve" smooth="yes"/>
      <point x="1924" y="273" type="line" smooth="yes"/>
      <point x="1924" y="316"/>
      <point x="1892" y="350"/>
      <point x="1849" y="350" type="curve" smooth="yes"/>
      <point x="1048" y="350" type="line" smooth="yes"/>
      <point x="1039" y="350"/>
      <point x="1033" y="356"/>
      <point x="1033" y="364" type="curve" smooth="yes"/>
      <point x="1033" y="368"/>
      <point x="1035" y="371"/>
      <point x="1039" y="375" type="curve" smooth="yes"/>
      <point x="1830" y="1083" type="line" smooth="yes"/>
      <point x="1862" y="1112"/>
      <point x="1885" y="1160"/>
      <point x="1885" y="1207" type="curve" smooth="yes"/>
      <point x="1885" y="1361" type="line" smooth="yes"/>
      <point x="1885" y="1404"/>
      <point x="1852" y="1438"/>
      <point x="1809" y="1438" type="curve" smooth="yes"/>
      <point x="250" y="1438" type="line" smooth="yes"/>
      <point x="207" y="1438"/>
      <point x="175" y="1404"/>
      <point x="175" y="1361" type="curve" smooth="yes"/>
      <point x="175" y="1167" type="line" smooth="yes"/>
      <point x="175" y="1124"/>
      <point x="207" y="1090"/>
      <point x="250" y="1090" type="curve" smooth="yes"/>
      <point x="956" y="1090" type="line" smooth="yes"/>
      <point x="967" y="1090"/>
      <point x="972" y="1083"/>
      <point x="972" y="1075" type="curve" smooth="yes"/>
      <point x="972" y="1071"/>
      <point x="970" y="1067"/>
      <point x="965" y="1062" type="curve" smooth="yes"/>
      <point x="197" y="361" type="line" smooth="yes"/>
      <point x="164" y="333"/>
      <point x="144" y="287"/>
      <point x="144" y="244" type="curve" smooth="yes"/>
      <point x="144" y="77" type="line" smooth="yes"/>
      <point x="144" y="34"/>
      <point x="177" y="0"/>
    </contour>
  </outline>
</glyph>
<glyph name="backslash" format="1">
  <advance width="1399"/>
  <unicode hex="005C"/>
  <outline>
    <contour>
      <point x="807" y="-207" type="curve" smooth="yes"/>
      <point x="1284" y="-205" type="line" smooth="yes"/>
      <point x="1302" y="-205"/>
      <point x="1314" y="-187"/>
      <point x="1308" y="-170" type="curve" smooth="yes"/>
      <point x="621" y="1612" type="line"/>
      <point x="614" y="1633"/>
      <point x="593" y="1647"/>
      <point x="571" y="1647" type="curve" smooth="yes"/>
      <point x="94" y="1647" type="line" smooth="yes"/>
      <point x="76" y="1647"/>
      <point x="64" y="1629"/>
      <point x="70" y="1612" type="curve" smooth="yes"/>
      <point x="757" y="-172" type="line" smooth="yes"/>
      <point x="765" y="-193"/>
      <point x="785" y="-207"/>
    </contour>
  </outline>
</glyph>
<glyph name="grave" format="1">
  <advance width="1745"/>
  <unicode hex="0060"/>
  <outline>
    <contour>
      <point x="873" y="1006" type="move" name="_top"/>
    </contour>
    <contour>
      <point x="1257" y="1172" type="curve" smooth="yes"/>
      <point x="1389" y="1172" type="line" smooth="yes"/>
      <point x="1423" y="1171"/>
      <point x="1435" y="1181"/>
      <point x="1423" y="1234" type="curve"/>
      <point x="1362" y="1563" type="line" smooth="yes"/>
      <point x="1354" y="1601"/>
      <point x="1338" y="1614"/>
      <point x="1299" y="1615" type="curve" smooth="yes"/>
      <point x="1297" y="1618"/>
      <point x="1058" y="1618"/>
      <point x="1055" y="1618" type="curve" smooth="yes"/>
      <point x="1038" y="1618"/>
      <point x="1006" y="1608"/>
      <point x="1006" y="1594" type="curve" smooth="yes"/>
      <point x="999" y="1585"/>
      <point x="1004" y="1571"/>
      <point x="1014" y="1555" type="curve" smooth="yes"/>
      <point x="1201" y="1211" type="line" smooth="yes"/>
      <point x="1211" y="1195"/>
      <point x="1220" y="1172"/>
    </contour>
  </outline>
</glyph>
<glyph name="k" format="1">
  <advance width="2006"/>
  <unicode hex="006B"/>
  <outline>
    <contour>
      <point x="1004" y="0" type="move" name="bottom"/>
    </contour>
    <contour>
      <point x="236" y="0" type="curve" smooth="yes"/>
      <point x="634" y="0" type="line" smooth="yes"/>
      <point x="677" y="0"/>
      <point x="709" y="33"/>
      <point x="709" y="76" type="curve" smooth="yes"/>
      <point x="709" y="219" type="line" smooth="yes"/>
      <point x="709" y="241"/>
      <point x="719" y="261"/>
      <point x="735" y="274" type="curve" smooth="yes"/>
      <point x="736" y="275"/>
      <point x="858" y="371"/>
      <point x="868" y="377" type="curve" smooth="yes"/>
      <point x="875" y="383"/>
      <point x="884" y="386"/>
      <point x="892" y="386" type="curve" smooth="yes"/>
      <point x="901" y="386"/>
      <point x="910" y="381"/>
      <point x="918" y="374" type="curve" smooth="yes"/>
      <point x="1231" y="59" type="line" smooth="yes"/>
      <point x="1266" y="24"/>
      <point x="1290" y="0"/>
      <point x="1336" y="0" type="curve" smooth="yes"/>
      <point x="1843" y="0" type="line" smooth="yes"/>
      <point x="1863" y="0"/>
      <point x="1875" y="15"/>
      <point x="1875" y="31" type="curve" smooth="yes"/>
      <point x="1875" y="39"/>
      <point x="1871" y="48"/>
      <point x="1863" y="56" type="curve" smooth="yes"/>
      <point x="1324" y="570" type="line" smooth="yes"/>
      <point x="1318" y="576"/>
      <point x="1315" y="583"/>
      <point x="1315" y="590" type="curve" smooth="yes"/>
      <point x="1315" y="599"/>
      <point x="1318" y="608"/>
      <point x="1327" y="613" type="curve" smooth="yes"/>
      <point x="1811" y="958" type="line" smooth="yes"/>
      <point x="1822" y="965"/>
      <point x="1828" y="974"/>
      <point x="1828" y="982" type="curve" smooth="yes"/>
      <point x="1828" y="995"/>
      <point x="1818" y="1006"/>
      <point x="1801" y="1006" type="curve" smooth="yes"/>
      <point x="1236" y="1006" type="line" smooth="yes"/>
      <point x="1190" y="1006"/>
      <point x="1137" y="986"/>
      <point x="1097" y="957" type="curve" smooth="yes"/>
      <point x="737" y="703" type="line" smooth="yes"/>
      <point x="733" y="701"/>
      <point x="729" y="699"/>
      <point x="727" y="699" type="curve" smooth="yes"/>
      <point x="717" y="699"/>
      <point x="709" y="706"/>
      <point x="709" y="717" type="curve" smooth="yes"/>
      <point x="709" y="1369" type="line" smooth="yes"/>
      <point x="709" y="1412"/>
      <point x="677" y="1444"/>
      <point x="634" y="1444" type="curve" smooth="yes"/>
      <point x="236" y="1444" type="line" smooth="yes"/>
      <point x="193" y="1444"/>
      <point x="160" y="1412"/>
      <point x="160" y="1369" type="curve" smooth="yes"/>
      <point x="160" y="76" type="line" smooth="yes"/>
      <point x="160" y="33"/>
      <point x="193" y="0"/>
    </contour>
  </outline>
</glyph>
<glyph name="l" format="1">
  <advance width="872"/>
  <unicode hex="006C"/>
  <outline>
    <contour>
      <point x="436" y="1006" type="move" name="top"/>
    </contour>
    <contour>
      <point x="850" y="1006" type="move" name="topright"/>
    </contour>
    <contour>
      <point x="436" y="0" type="move" name="bottom"/>
    </contour>
    <contour>
      <point x="236" y="0" type="curve" smooth="yes"/>
      <point x="635" y="0" type="line" smooth="yes"/>
      <point x="678" y="0"/>
      <point x="710" y="33"/>
      <point x="710" y="76" type="curve" smooth="yes"/>
      <point x="710" y="1369" type="line" smooth="yes"/>
      <point x="710" y="1412"/>
      <point x="678" y="1444"/>
      <point x="635" y="1444" type="curve" smooth="yes"/>
      <point x="236" y="1444" type="line" smooth="yes"/>
      <point x="193" y="1444"/>
      <point x="161" y="1412"/>
      <point x="161" y="1369" type="curve" smooth="yes"/>
      <point x="161" y="76" type="line" smooth="yes"/>
      <point x="161" y="33"/>
      <point x="193" y="0"/>
    </contour>
  </outline>
</glyph>
<glyph name="yen" format="1">
  <advance width="2241"/>
  <unicode hex="00A5"/>
  <outline>
    <contour>
      <point x="860" y="0" type="curve" smooth="yes"/>
      <point x="1391" y="0" type="line" smooth="yes"/>
      <point x="1434" y="0"/>
      <point x="1466" y="33"/>
      <point x="1466" y="76" type="curve" smooth="yes"/>
      <point x="1466" y="216" type="line"/>
      <point x="1759" y="216" type="line" smooth="yes"/>
      <point x="1802" y="216"/>
      <point x="1806" y="247"/>
      <point x="1806" y="290" type="curve" smooth="yes"/>
      <point x="1806" y="321" type="line" smooth="yes"/>
      <point x="1806" y="364"/>
      <point x="1802" y="395"/>
      <point x="1759" y="395" type="curve" smooth="yes"/>
      <point x="1466" y="395" type="line"/>
      <point x="1540" y="555" type="line"/>
      <point x="1791" y="555" type="line" smooth="yes"/>
      <point x="1834" y="555"/>
      <point x="1838" y="586"/>
      <point x="1838" y="629" type="curve" smooth="yes"/>
      <point x="1838" y="660" type="line" smooth="yes"/>
      <point x="1838" y="703"/>
      <point x="1834" y="734"/>
      <point x="1791" y="734" type="curve" smooth="yes"/>
      <point x="1655" y="734" type="line"/>
      <point x="2146" y="1375" type="line" smooth="yes"/>
      <point x="2153" y="1384"/>
      <point x="2157" y="1393"/>
      <point x="2157" y="1402" type="curve" smooth="yes"/>
      <point x="2157" y="1421"/>
      <point x="2140" y="1438"/>
      <point x="2117" y="1438" type="curve" smooth="yes"/>
      <point x="1649" y="1438" type="line" smooth="yes"/>
      <point x="1602" y="1438"/>
      <point x="1556" y="1413"/>
      <point x="1527" y="1374" type="curve" smooth="yes"/>
      <point x="1171" y="889" type="line"/>
      <point x="805" y="1375" type="line" smooth="yes"/>
      <point x="775" y="1414"/>
      <point x="727" y="1438"/>
      <point x="681" y="1438" type="curve" smooth="yes"/>
      <point x="117" y="1438" type="line" smooth="yes"/>
      <point x="94" y="1438"/>
      <point x="79" y="1421"/>
      <point x="79" y="1403" type="curve" smooth="yes"/>
      <point x="79" y="1395"/>
      <point x="83" y="1385"/>
      <point x="90" y="1376" type="curve" smooth="yes"/>
      <point x="589" y="734" type="line"/>
      <point x="440" y="734" type="line" smooth="yes"/>
      <point x="397" y="734"/>
      <point x="393" y="703"/>
      <point x="393" y="660" type="curve" smooth="yes"/>
      <point x="393" y="629" type="line" smooth="yes"/>
      <point x="393" y="586"/>
      <point x="397" y="555"/>
      <point x="440" y="555" type="curve" smooth="yes"/>
      <point x="707" y="555" type="line"/>
      <point x="784" y="395" type="line"/>
      <point x="504" y="395" type="line" smooth="yes"/>
      <point x="461" y="395"/>
      <point x="457" y="364"/>
      <point x="457" y="321" type="curve" smooth="yes"/>
      <point x="457" y="290" type="line" smooth="yes"/>
      <point x="457" y="247"/>
      <point x="461" y="216"/>
      <point x="504" y="216" type="curve" smooth="yes"/>
      <point x="784" y="216" type="line"/>
      <point x="784" y="76" type="line" smooth="yes"/>
      <point x="784" y="33"/>
      <point x="817" y="0"/>
    </contour>
  </outline>
</glyph>
<glyph name="guillemotleft" format="1">
  <advance width="1460"/>
  <unicode hex="00AB"/>
  <outline>
    <contour>
      <point x="671" y="29" type="curve" smooth="yes"/>
      <point x="708" y="29"/>
      <point x="726" y="60"/>
      <point x="726" y="80" type="curve" smooth="yes"/>
      <point x="726" y="182" type="line" smooth="yes"/>
      <point x="726" y="246"/>
      <point x="719" y="272"/>
      <point x="667" y="323" type="curve"/>
      <point x="417" y="501" type="line"/>
      <point x="406" y="513"/>
      <point x="401" y="521"/>
      <point x="401" y="536" type="curve" smooth="yes"/>
      <point x="401" y="550"/>
      <point x="405" y="556"/>
      <point x="417" y="568" type="curve"/>
      <point x="667" y="746" type="line"/>
      <point x="719" y="798"/>
      <point x="726" y="825"/>
      <point x="726" y="888" type="curve" smooth="yes"/>
      <point x="726" y="987" type="line" smooth="yes"/>
      <point x="726" y="1006"/>
      <point x="708" y="1036"/>
      <point x="671" y="1036" type="curve" smooth="yes"/>
      <point x="655" y="1036"/>
      <point x="636" y="1030"/>
      <point x="613" y="1016" type="curve" smooth="yes"/>
      <point x="230" y="768" type="line"/>
      <point x="160" y="721"/>
      <point x="133" y="671"/>
      <point x="133" y="606" type="curve" smooth="yes"/>
      <point x="133" y="453" type="line" smooth="yes"/>
      <point x="133" y="389"/>
      <point x="160" y="350"/>
      <point x="230" y="303" type="curve"/>
      <point x="613" y="49" type="line" smooth="yes"/>
      <point x="636" y="35"/>
      <point x="656" y="29"/>
    </contour>
    <contour>
      <point x="1255" y="29" type="curve" smooth="yes"/>
      <point x="1292" y="29"/>
      <point x="1310" y="60"/>
      <point x="1310" y="80" type="curve" smooth="yes"/>
      <point x="1310" y="182" type="line" smooth="yes"/>
      <point x="1310" y="246"/>
      <point x="1303" y="272"/>
      <point x="1251" y="323" type="curve"/>
      <point x="1002" y="501" type="line"/>
      <point x="990" y="513"/>
      <point x="985" y="521"/>
      <point x="985" y="536" type="curve" smooth="yes"/>
      <point x="985" y="550"/>
      <point x="989" y="556"/>
      <point x="1002" y="568" type="curve"/>
      <point x="1251" y="746" type="line"/>
      <point x="1304" y="798"/>
      <point x="1310" y="825"/>
      <point x="1310" y="888" type="curve" smooth="yes"/>
      <point x="1310" y="987" type="line" smooth="yes"/>
      <point x="1310" y="1006"/>
      <point x="1292" y="1036"/>
      <point x="1255" y="1036" type="curve" smooth="yes"/>
      <point x="1239" y="1036"/>
      <point x="1220" y="1030"/>
      <point x="1196" y="1016" type="curve" smooth="yes"/>
      <point x="814" y="768" type="line"/>
      <point x="744" y="721"/>
      <point x="717" y="671"/>
      <point x="717" y="606" type="curve" smooth="yes"/>
      <point x="717" y="453" type="line" smooth="yes"/>
      <point x="717" y="389"/>
      <point x="744" y="350"/>
      <point x="814" y="303" type="curve"/>
      <point x="1197" y="49" type="line" smooth="yes"/>
      <point x="1220" y="35"/>
      <point x="1239" y="29"/>
    </contour>
  </outline>
</glyph>
<glyph name="logicalnot" format="1">
  <advance width="1303"/>
  <unicode hex="00AC"/>
  <outline>
    <contour>
      <point x="923" y="129" type="curve" smooth="yes"/>
      <point x="1086" y="129" type="line" smooth="yes"/>
      <point x="1129" y="129"/>
      <point x="1160" y="163"/>
      <point x="1160" y="206" type="curve" smooth="yes"/>
      <point x="1160" y="717" type="line" smooth="yes"/>
      <point x="1160" y="760"/>
      <point x="1126" y="792"/>
      <point x="1083" y="792" type="curve" smooth="yes"/>
      <point x="202" y="792" type="line" smooth="yes"/>
      <point x="159" y="792"/>
      <point x="128" y="761"/>
      <point x="128" y="718" type="curve" smooth="yes"/>
      <point x="128" y="580" type="line" smooth="yes"/>
      <point x="128" y="537"/>
      <point x="159" y="506"/>
      <point x="202" y="506" type="curve" smooth="yes"/>
      <point x="812" y="506" type="line" smooth="yes"/>
      <point x="832" y="506"/>
      <point x="849" y="489"/>
      <point x="849" y="469" type="curve" smooth="yes"/>
      <point x="849" y="206" type="line" smooth="yes"/>
      <point x="849" y="163"/>
      <point x="880" y="129"/>
    </contour>
  </outline>
</glyph>
<glyph name="paragraph" format="1">
  <advance width="1742"/>
  <unicode hex="00B6"/>
  <outline>
    <contour>
      <point x="863" y="-1" type="curve" smooth="yes"/>
      <point x="1016" y="-1" type="line" smooth="yes"/>
      <point x="1059" y="-1"/>
      <point x="1090" y="33"/>
      <point x="1090" y="76" type="curve" smooth="yes"/>
      <point x="1090" y="554" type="line"/>
      <point x="1263" y="554" type="line" smooth="yes"/>
      <point x="1273" y="554"/>
      <point x="1282" y="545"/>
      <point x="1282" y="533" type="curve" smooth="yes"/>
      <point x="1282" y="76" type="line" smooth="yes"/>
      <point x="1282" y="33"/>
      <point x="1313" y="-1"/>
      <point x="1356" y="-1" type="curve" smooth="yes"/>
      <point x="1509" y="-1" type="line" smooth="yes"/>
      <point x="1552" y="-1"/>
      <point x="1583" y="33"/>
      <point x="1583" y="76" type="curve" smooth="yes"/>
      <point x="1583" y="1327" type="line" smooth="yes"/>
      <point x="1583" y="1370"/>
      <point x="1550" y="1400"/>
      <point x="1507" y="1404" type="curve" smooth="yes"/>
      <point x="1424" y="1412"/>
      <point x="1093" y="1438"/>
      <point x="848" y="1438" type="curve" smooth="yes"/>
      <point x="469" y="1438"/>
      <point x="129" y="1355"/>
      <point x="129" y="1013" type="curve" smooth="yes"/>
      <point x="129" y="652"/>
      <point x="417" y="554"/>
      <point x="751" y="554" type="curve" smooth="yes"/>
      <point x="789" y="554" type="line"/>
      <point x="789" y="76" type="line" smooth="yes"/>
      <point x="789" y="33"/>
      <point x="820" y="-1"/>
    </contour>
  </outline>
</glyph>
<glyph name="AE" format="1">
  <advance width="3037"/>
  <unicode hex="00C6"/>
  <outline>
    <contour>
      <point x="1519" y="1438" type="move" name="top"/>
    </contour>
    <contour>
      <point x="153" y="0" type="curve" smooth="yes"/>
      <point x="628" y="0" type="line" smooth="yes"/>
      <point x="674" y="0"/>
      <point x="708" y="17"/>
      <point x="726" y="59" type="curve"/>
      <point x="776" y="180" type="line"/>
      <point x="784" y="197"/>
      <point x="785" y="209"/>
      <point x="813" y="209" type="curve" smooth="yes"/>
      <point x="1214" y="209" type="line"/>
      <point x="1214" y="76" type="line" smooth="yes"/>
      <point x="1214" y="33"/>
      <point x="1247" y="0"/>
      <point x="1290" y="0" type="curve" smooth="yes"/>
      <point x="2820" y="0" type="line" smooth="yes"/>
      <point x="2863" y="0"/>
      <point x="2895" y="34"/>
      <point x="2895" y="77" type="curve" smooth="yes"/>
      <point x="2895" y="262" type="line" smooth="yes"/>
      <point x="2895" y="305"/>
      <point x="2863" y="339"/>
      <point x="2820" y="339" type="curve" smooth="yes"/>
      <point x="1877" y="339" type="line" smooth="yes"/>
      <point x="1860" y="339"/>
      <point x="1847" y="347"/>
      <point x="1847" y="364" type="curve" smooth="yes"/>
      <point x="1847" y="572" type="line" smooth="yes"/>
      <point x="1847" y="589"/>
      <point x="1861" y="598"/>
      <point x="1878" y="598" type="curve" smooth="yes"/>
      <point x="2669" y="598" type="line" smooth="yes"/>
      <point x="2712" y="598"/>
      <point x="2745" y="632"/>
      <point x="2745" y="675" type="curve" smooth="yes"/>
      <point x="2745" y="786" type="line" smooth="yes"/>
      <point x="2745" y="829"/>
      <point x="2712" y="863"/>
      <point x="2669" y="863" type="curve" smooth="yes"/>
      <point x="1877" y="863" type="line" smooth="yes"/>
      <point x="1860" y="863"/>
      <point x="1847" y="873"/>
      <point x="1847" y="890" type="curve" smooth="yes"/>
      <point x="1847" y="1067" type="line" smooth="yes"/>
      <point x="1847" y="1087"/>
      <point x="1859" y="1094"/>
      <point x="1879" y="1094" type="curve" smooth="yes"/>
      <point x="2758" y="1094" type="line" smooth="yes"/>
      <point x="2801" y="1094"/>
      <point x="2833" y="1128"/>
      <point x="2833" y="1171" type="curve" smooth="yes"/>
      <point x="2833" y="1361" type="line" smooth="yes"/>
      <point x="2833" y="1404"/>
      <point x="2801" y="1438"/>
      <point x="2758" y="1438" type="curve" smooth="yes"/>
      <point x="861" y="1438" type="line" smooth="yes"/>
      <point x="815" y="1438"/>
      <point x="773" y="1410"/>
      <point x="752" y="1369" type="curve" smooth="yes"/>
      <point x="111" y="69" type="line" smooth="yes"/>
      <point x="106" y="61"/>
      <point x="105" y="53"/>
      <point x="105" y="46" type="curve" smooth="yes"/>
      <point x="105" y="21"/>
      <point x="124" y="0"/>
    </contour>
    <contour>
      <point x="956" y="534" type="line"/>
      <point x="943" y="534"/>
      <point x="933" y="544"/>
      <point x="933" y="555" type="curve" smooth="yes"/>
      <point x="933" y="558"/>
      <point x="934" y="561"/>
      <point x="935" y="563" type="curve" smooth="yes"/>
      <point x="1181" y="1142" type="line" smooth="yes"/>
      <point x="1183" y="1147"/>
      <point x="1188" y="1150"/>
      <point x="1193" y="1150" type="curve" smooth="yes"/>
      <point x="1194" y="1150"/>
      <point x="1210" y="1150"/>
      <point x="1214" y="1150" type="curve"/>
      <point x="1214" y="534" type="line"/>
    </contour>
  </outline>
</glyph>
<glyph name="dcroat" format="1">
  <advance width="2038"/>
  <unicode hex="0111"/>
  <outline>
    <contour>
      <point x="872" y="-41" type="curve" smooth="yes"/>
      <point x="1122" y="-41"/>
      <point x="1376" y="41"/>
      <point x="1511" y="201" type="curve" smooth="yes"/>
      <point x="1517" y="207"/>
      <point x="1524" y="211"/>
      <point x="1531" y="212" type="curve" smooth="yes"/>
      <point x="1539" y="211"/>
      <point x="1546" y="206"/>
      <point x="1552" y="198" type="curve" smooth="yes"/>
      <point x="1554" y="192"/>
      <point x="1630" y="71"/>
      <point x="1633" y="65" type="curve" smooth="yes"/>
      <point x="1657" y="26"/>
      <point x="1700" y="0"/>
      <point x="1744" y="0" type="curve" smooth="yes"/>
      <point x="1805" y="0" type="line" smooth="yes"/>
      <point x="1848" y="0"/>
      <point x="1878" y="33"/>
      <point x="1878" y="76" type="curve" smooth="yes"/>
      <point x="1878" y="1130" type="line"/>
      <point x="1989" y="1130" type="line" smooth="yes"/>
      <point x="2030" y="1130"/>
      <point x="2046" y="1156"/>
      <point x="2046" y="1199" type="curve" smooth="yes"/>
      <point x="2046" y="1241" type="line" smooth="yes"/>
      <point x="2046" y="1284"/>
      <point x="2030" y="1310"/>
      <point x="1989" y="1310" type="curve" smooth="yes"/>
      <point x="1878" y="1310" type="line"/>
      <point x="1878" y="1360" type="line" smooth="yes"/>
      <point x="1878" y="1403"/>
      <point x="1846" y="1436"/>
      <point x="1803" y="1436" type="curve" smooth="yes"/>
      <point x="1408" y="1436" type="line" smooth="yes"/>
      <point x="1365" y="1436"/>
      <point x="1332" y="1403"/>
      <point x="1332" y="1360" type="curve" smooth="yes"/>
      <point x="1332" y="1310" type="line"/>
      <point x="1035" y="1310" type="line" smooth="yes"/>
      <point x="994" y="1310"/>
      <point x="978" y="1284"/>
      <point x="978" y="1241" type="curve" smooth="yes"/>
      <point x="978" y="1199" type="line" smooth="yes"/>
      <point x="978" y="1156"/>
      <point x="994" y="1130"/>
      <point x="1035" y="1130" type="curve" smooth="yes"/>
      <point x="1332" y="1130" type="line"/>
      <point x="1332" y="930" type="line" smooth="yes"/>
      <point x="1332" y="920"/>
      <point x="1325" y="911"/>
      <point x="1317" y="911" type="curve" smooth="yes"/>
      <point x="1314" y="912"/>
      <point x="1310" y="913"/>
      <point x="1306" y="916" type="curve" smooth="yes"/>
      <point x="1194" y="1005"/>
      <point x="1021" y="1053"/>
      <point x="839" y="1053" type="curve" smooth="yes"/>
      <point x="498" y="1053"/>
      <point x="132" y="889"/>
      <point x="132" y="499" type="curve" smooth="yes"/>
      <point x="132" y="129"/>
      <point x="507" y="-41"/>
    </contour>
    <contour>
      <point x="1014" y="231" type="curve" smooth="yes"/>
      <point x="816" y="231"/>
      <point x="704" y="362"/>
      <point x="704" y="513" type="curve" smooth="yes"/>
      <point x="704" y="667"/>
      <point x="818" y="794"/>
      <point x="1013" y="794" type="curve" smooth="yes"/>
      <point x="1216" y="794"/>
      <point x="1332" y="665"/>
      <point x="1332" y="513" type="curve" smooth="yes"/>
      <point x="1332" y="361"/>
      <point x="1218" y="231"/>
    </contour>
  </outline>
</glyph>
<glyph name="hbar" format="1">
  <advance width="2022"/>
  <unicode hex="0127"/>
  <outline>
    <contour>
      <point x="235" y="0" type="curve" smooth="yes"/>
      <point x="633" y="0" type="line" smooth="yes"/>
      <point x="676" y="0"/>
      <point x="709" y="33"/>
      <point x="709" y="76" type="curve" smooth="yes"/>
      <point x="709" y="513" type="line" smooth="yes"/>
      <point x="709" y="646"/>
      <point x="829" y="781"/>
      <point x="1026" y="781" type="curve" smooth="yes"/>
      <point x="1212" y="781"/>
      <point x="1316" y="658"/>
      <point x="1316" y="513" type="curve" smooth="yes"/>
      <point x="1316" y="76" type="line" smooth="yes"/>
      <point x="1316" y="33"/>
      <point x="1348" y="0"/>
      <point x="1391" y="0" type="curve" smooth="yes"/>
      <point x="1804" y="0" type="line" smooth="yes"/>
      <point x="1847" y="0"/>
      <point x="1879" y="33"/>
      <point x="1879" y="76" type="curve" smooth="yes"/>
      <point x="1879" y="518" type="line" smooth="yes"/>
      <point x="1879" y="868"/>
      <point x="1561" y="1053"/>
      <point x="1213" y="1053" type="curve" smooth="yes"/>
      <point x="1040" y="1053"/>
      <point x="868" y="1006"/>
      <point x="736" y="909" type="curve" smooth="yes"/>
      <point x="724" y="901"/>
      <point x="709" y="908"/>
      <point x="709" y="923" type="curve" smooth="yes"/>
      <point x="709" y="1128" type="line"/>
      <point x="1010" y="1128" type="line" smooth="yes"/>
      <point x="1052" y="1128"/>
      <point x="1068" y="1153"/>
      <point x="1068" y="1196" type="curve" smooth="yes"/>
      <point x="1068" y="1242" type="line" smooth="yes"/>
      <point x="1068" y="1285"/>
      <point x="1052" y="1311"/>
      <point x="1010" y="1311" type="curve" smooth="yes"/>
      <point x="709" y="1311" type="line"/>
      <point x="709" y="1362" type="line" smooth="yes"/>
      <point x="709" y="1405"/>
      <point x="676" y="1438"/>
      <point x="633" y="1438" type="curve" smooth="yes"/>
      <point x="235" y="1438" type="line" smooth="yes"/>
      <point x="192" y="1438"/>
      <point x="159" y="1405"/>
      <point x="159" y="1362" type="curve" smooth="yes"/>
      <point x="159" y="1311" type="line"/>
      <point x="59" y="1311" type="line" smooth="yes"/>
      <point x="17" y="1311"/>
      <point x="1" y="1285"/>
      <point x="1" y="1242" type="curve" smooth="yes"/>
      <point x="1" y="1196" type="line" smooth="yes"/>
      <point x="1" y="1153"/>
      <point x="17" y="1128"/>
      <point x="59" y="1128" type="curve" smooth="yes"/>
      <point x="159" y="1128" type="line"/>
      <point x="159" y="76" type="line" smooth="yes"/>
      <point x="159" y="33"/>
      <point x="192" y="0"/>
    </contour>
  </outline>
</glyph>
<glyph name="Lslash" format="1">
  <advance width="1997"/>
  <unicode hex="0141"/>
  <outline>
    <contour>
      <point x="235" y="0" type="curve" smooth="yes"/>
      <point x="1798" y="0" type="line" smooth="yes"/>
      <point x="1841" y="0"/>
      <point x="1874" y="33"/>
      <point x="1874" y="76" type="curve" smooth="yes"/>
      <point x="1874" y="274" type="line" smooth="yes"/>
      <point x="1874" y="317"/>
      <point x="1841" y="350"/>
      <point x="1798" y="350" type="curve" smooth="yes"/>
      <point x="902" y="350" type="line" smooth="yes"/>
      <point x="882" y="350"/>
      <point x="865" y="367"/>
      <point x="865" y="387" type="curve" smooth="yes"/>
      <point x="865" y="775" type="line"/>
      <point x="1075" y="816" type="line" smooth="yes"/>
      <point x="1111" y="823"/>
      <point x="1141" y="847"/>
      <point x="1141" y="885" type="curve" smooth="yes"/>
      <point x="1141" y="1028" type="line" smooth="yes"/>
      <point x="1141" y="1066"/>
      <point x="1111" y="1104"/>
      <point x="1075" y="1097" type="curve" smooth="yes"/>
      <point x="865" y="1056" type="line"/>
      <point x="865" y="1363" type="line" smooth="yes"/>
      <point x="865" y="1406"/>
      <point x="833" y="1438"/>
      <point x="790" y="1438" type="curve" smooth="yes"/>
      <point x="235" y="1438" type="line" smooth="yes"/>
      <point x="192" y="1438"/>
      <point x="159" y="1406"/>
      <point x="159" y="1363" type="curve" smooth="yes"/>
      <point x="159" y="921" type="line"/>
      <point x="66" y="903" type="line" smooth="yes"/>
      <point x="30" y="896"/>
      <point x="1" y="872"/>
      <point x="1" y="832" type="curve" smooth="yes"/>
      <point x="1" y="693" type="line" smooth="yes"/>
      <point x="1" y="653"/>
      <point x="30" y="615"/>
      <point x="66" y="622" type="curve" smooth="yes"/>
      <point x="159" y="640" type="line"/>
      <point x="159" y="76" type="line" smooth="yes"/>
      <point x="159" y="33"/>
      <point x="192" y="0"/>
    </contour>
  </outline>
</glyph>
<glyph name="ring" format="1">
  <advance width="1717"/>
  <unicode hex="02DA"/>
  <outline>
    <contour>
      <point x="858" y="1006" type="move" name="_top"/>
    </contour>
    <contour>
      <point x="859" y="1447" type="curve" smooth="yes"/>
      <point x="775" y="1447"/>
      <point x="706" y="1496"/>
      <point x="708" y="1594" type="curve"/>
      <point x="706" y="1699"/>
      <point x="780" y="1740"/>
      <point x="859" y="1740" type="curve" smooth="yes"/>
      <point x="935" y="1740"/>
      <point x="1009" y="1699"/>
      <point x="1009" y="1594" type="curve" smooth="yes"/>
      <point x="1009" y="1495"/>
      <point x="939" y="1447"/>
    </contour>
    <contour>
      <point x="860" y="1332" type="curve" smooth="yes"/>
      <point x="980" y="1332"/>
      <point x="1143" y="1403"/>
      <point x="1143" y="1594" type="curve" smooth="yes"/>
      <point x="1143" y="1790"/>
      <point x="993" y="1856"/>
      <point x="860" y="1856" type="curve" smooth="yes"/>
      <point x="724" y="1856"/>
      <point x="573" y="1790"/>
      <point x="573" y="1594" type="curve" smooth="yes"/>
      <point x="573" y="1402"/>
      <point x="736" y="1332"/>
    </contour>
  </outline>
</glyph>
<glyph name="uni0326" format="1">
  <advance width="974"/>
  <unicode hex="0326"/>
  <outline>
    <contour>
      <point x="483" y="0" type="move" name="_bottom"/>
    </contour>
    <contour>
      <point x="312" y="-642" type="curve" smooth="yes"/>
      <point x="408" y="-642" type="line" smooth="yes"/>
      <point x="446" y="-642"/>
      <point x="454" y="-621"/>
      <point x="464" y="-603" type="curve" smooth="yes"/>
      <point x="684" y="-259" type="line" smooth="yes"/>
      <point x="691" y="-247"/>
      <point x="696" y="-233"/>
      <point x="696" y="-222" type="curve" smooth="yes"/>
      <point x="696" y="-206"/>
      <point x="688" y="-194"/>
      <point x="668" y="-194" type="curve" smooth="yes"/>
      <point x="408" y="-194" type="line" smooth="yes"/>
      <point x="364" y="-194"/>
      <point x="345" y="-206"/>
      <point x="337" y="-249" type="curve" smooth="yes"/>
      <point x="274" y="-575" type="line" smooth="yes"/>
      <point x="271" y="-589"/>
      <point x="270" y="-601"/>
      <point x="270" y="-610" type="curve" smooth="yes"/>
      <point x="270" y="-637"/>
      <point x="283" y="-642"/>
    </contour>
  </outline>
</glyph>
<glyph name="uniFB04" format="1">
  <advance width="3396"/>
  <outline>
    <contour>
      <point x="445" y="0" type="curve" smooth="yes"/>
      <point x="864" y="0" type="line" smooth="yes"/>
      <point x="907" y="0"/>
      <point x="942" y="34"/>
      <point x="942" y="77" type="curve" smooth="yes"/>
      <point x="942" y="762" type="line" smooth="yes"/>
      <point x="942" y="782"/>
      <point x="944" y="799"/>
      <point x="964" y="799" type="curve" smooth="yes"/>
      <point x="1502" y="799" type="line" smooth="yes"/>
      <point x="1522" y="799"/>
      <point x="1522" y="782"/>
      <point x="1522" y="762" type="curve" smooth="yes"/>
      <point x="1522" y="77" type="line" smooth="yes"/>
      <point x="1522" y="34"/>
      <point x="1557" y="0"/>
      <point x="1600" y="0" type="curve" smooth="yes"/>
      <point x="2019" y="0" type="line" smooth="yes"/>
      <point x="2062" y="0"/>
      <point x="2096" y="34"/>
      <point x="2096" y="77" type="curve" smooth="yes"/>
      <point x="2096" y="762" type="line" smooth="yes"/>
      <point x="2096" y="782"/>
      <point x="2099" y="799"/>
      <point x="2119" y="799" type="curve" smooth="yes"/>
      <point x="2473" y="799" type="line" smooth="yes"/>
      <point x="2516" y="799"/>
      <point x="2540" y="808"/>
      <point x="2540" y="851" type="curve" smooth="yes"/>
      <point x="2540" y="951" type="line" smooth="yes"/>
      <point x="2540" y="994"/>
      <point x="2516" y="1006"/>
      <point x="2473" y="1006" type="curve" smooth="yes"/>
      <point x="2103" y="1006" type="line" smooth="yes"/>
      <point x="2099" y="1006"/>
      <point x="2096" y="1010"/>
      <point x="2096" y="1013" type="curve" smooth="yes"/>
      <point x="2096" y="1062" type="line" smooth="yes"/>
      <point x="2096" y="1158"/>
      <point x="2203" y="1199"/>
      <point x="2390" y="1199" type="curve" smooth="yes"/>
      <point x="2475" y="1199"/>
      <point x="2632" y="1187"/>
      <point x="2687" y="1183" type="curve"/>
      <point x="2687" y="76" type="line" smooth="yes"/>
      <point x="2687" y="33"/>
      <point x="2719" y="0"/>
      <point x="2762" y="0" type="curve" smooth="yes"/>
      <point x="3160" y="0" type="line" smooth="yes"/>
      <point x="3203" y="0"/>
      <point x="3236" y="33"/>
      <point x="3236" y="76" type="curve" smooth="yes"/>
      <point x="3236" y="1313" type="line" smooth="yes"/>
      <point x="3236" y="1356"/>
      <point x="3204" y="1381"/>
      <point x="3160" y="1389" type="curve" smooth="yes"/>
      <point x="2863" y="1442"/>
      <point x="2592" y="1475"/>
      <point x="2255" y="1475" type="curve" smooth="yes"/>
      <point x="1895" y="1475"/>
      <point x="1546" y="1367"/>
      <point x="1524" y="1044" type="curve" smooth="yes"/>
      <point x="1523" y="1022"/>
      <point x="1522" y="1006"/>
      <point x="1500" y="1006" type="curve" smooth="yes"/>
      <point x="949" y="1006" type="line" smooth="yes"/>
      <point x="945" y="1006"/>
      <point x="942" y="1010"/>
      <point x="942" y="1013" type="curve" smooth="yes"/>
      <point x="942" y="1062" type="line" smooth="yes"/>
      <point x="942" y="1158"/>
      <point x="1037" y="1199"/>
      <point x="1202" y="1199" type="curve" smooth="yes"/>
      <point x="1263" y="1199"/>
      <point x="1389" y="1181"/>
      <point x="1394" y="1181" type="curve" smooth="yes"/>
      <point x="1428" y="1181"/>
      <point x="1436" y="1193"/>
      <point x="1436" y="1230" type="curve" smooth="yes"/>
      <point x="1436" y="1377" type="line" smooth="yes"/>
      <point x="1436" y="1405"/>
      <point x="1414" y="1431"/>
      <point x="1386" y="1438" type="curve"/>
      <point x="1284" y="1456"/>
      <point x="1153" y="1475"/>
      <point x="1027" y="1475" type="curve" smooth="yes"/>
      <point x="702" y="1475"/>
      <point x="389" y="1367"/>
      <point x="369" y="1044" type="curve" smooth="yes"/>
      <point x="368" y="1022"/>
      <point x="367" y="1006"/>
      <point x="345" y="1006" type="curve" smooth="yes"/>
      <point x="195" y="1006" type="line" smooth="yes"/>
      <point x="152" y="1006"/>
      <point x="129" y="988"/>
      <point x="129" y="945" type="curve" smooth="yes"/>
      <point x="129" y="851" type="line" smooth="yes"/>
      <point x="129" y="808"/>
      <point x="152" y="799"/>
      <point x="195" y="799" type="curve" smooth="yes"/>
      <point x="347" y="799" type="line" smooth="yes"/>
      <point x="367" y="799"/>
      <point x="367" y="782"/>
      <point x="367" y="762" type="curve" smooth="yes"/>
      <point x="367" y="77" type="line" smooth="yes"/>
      <point x="367" y="34"/>
      <point x="402" y="0"/>
    </contour>
  </outline>
</glyph>
